<svg width="113" height="113" xmlns="http://www.w3.org/2000/svg" xmlns:xlink="http://www.w3.org/1999/xlink" overflow="hidden"><defs><clipPath id="clip0"><rect x="0" y="0" width="113" height="113"/></clipPath><clipPath id="clip1"><rect x="0" y="-129" width="57" height="314"/></clipPath><clipPath id="clip2"><rect x="56" y="-129" width="57" height="314"/></clipPath><clipPath id="clip3"><rect x="0" y="-72" width="57" height="314"/></clipPath><clipPath id="clip4"><rect x="56" y="-72" width="57" height="314"/></clipPath></defs><g clip-path="url(#clip0)"><rect x="0" y="0" width="113" height="113" fill="#FFFFFF"/><path d="M56.5-1.99412 56.5 114.994" stroke="#000000" stroke-width="3.98824" stroke-linejoin="round" stroke-miterlimit="10" fill="none" fill-rule="evenodd"/><path d="M-1.99412 56.5 114.994 56.5" stroke="#000000" stroke-width="3.98824" stroke-linejoin="round" stroke-miterlimit="10" fill="none" fill-rule="evenodd"/><path d="M0-1.99412 0 114.994" stroke="#000000" stroke-width="3.98824" stroke-linejoin="round" stroke-miterlimit="10" fill="none" fill-rule="evenodd"/><path d="M113-1.99412 113 114.994" stroke="#000000" stroke-width="3.98824" stroke-linejoin="round" stroke-miterlimit="10" fill="none" fill-rule="evenodd"/><path d="M-1.99412 0 114.994 0" stroke="#000000" stroke-width="3.98824" stroke-linejoin="round" stroke-miterlimit="10" fill="none" fill-rule="evenodd"/><path d="M-1.99412 113 114.994 113" stroke="#000000" stroke-width="3.98824" stroke-linejoin="round" stroke-miterlimit="10" fill="none" fill-rule="evenodd"/><g clip-path="url(#clip1)"><text font-family="Arial,Arial_MSFontService,sans-serif" font-weight="900" font-size="37" transform="matrix(1 0 0 1 12.7125 41)">U</text></g><g clip-path="url(#clip2)"><text font-family="Arial,Arial_MSFontService,sans-serif" font-weight="900" font-size="37" transform="matrix(1 0 0 1 67.2184 41)">M</text></g><g clip-path="url(#clip3)"><text font-family="Arial,Arial_MSFontService,sans-serif" font-weight="900" font-size="37" transform="matrix(1 0 0 1 13.7926 97)">A</text></g><g clip-path="url(#clip4)"><text font-family="Arial,Arial_MSFontService,sans-serif" font-weight="900" font-size="37" transform="matrix(1 0 0 1 77.5213 97)">I</text></g></g></svg>